<svg aria-hidden="true" style="width:0;height:0;position:absolute;overflow:hidden" xmlns="http://www.w3.org/2000/svg"><defs><symbol id="icon-arrow" viewBox="0 0 56 32"><path fill="#fff" style="fill:var(--color1,#fff)" opacity=".8" d="M28 26 52.176 2.649c.875-.841 2.293-.841 3.168 0s.875 2.206 0 3.047L28 32 .656 5.696c-.875-.841-.875-2.206 0-3.047s2.293-.841 3.168 0L28 26z"/></symbol><symbol id="icon-menu" viewBox="0 0 43 32"><path fill="#fff" style="fill:var(--color1,#fff)" d="M40 0H2.667a2.667 2.667 0 1 0 0 5.334H40A2.667 2.667 0 1 0 40 0zM40 13.333H2.667a2.667 2.667 0 1 0 0 5.334H40a2.667 2.667 0 1 0 0-5.334zM40 26.667H2.667a2.667 2.667 0 1 0 0 5.334H40a2.667 2.667 0 1 0 0-5.334z"/></symbol></defs></svg>